# xmcd
#
# Track frame offsets:
#	150
#	30331
#	72911
#	101313
#	152422
#
# Disc length: 3870 seconds
#
# Revision: 1
# Processed by: cddbd v1.5.2PL0 Copyright (c) Steve Scherf et al.
# Submitted via: audiograbber 1.83.01
#
DISCID=2c0f1c05
DTITLE=Grateful Dead - 95-06-04 Shoreline Amphitheatre, Mountain View CA
DYEAR=1900
DGENRE=
TTITLE0=Here Comes Sunshine
TTITLE1=Victim Or The Crime
TTITLE2=Unbroken Chair
TTITLE3=Eyes Of The World
TTITLE4=Drums > Space
EXTD=
EXTT0=
EXTT1=
EXTT2=
EXTT3=
EXTT4=
PLAYORDER=
